<svg width="61" height="42" viewBox="0 0 61 42" fill="none" xmlns="http://www.w3.org/2000/svg">
<path d="M10 19.6C14.1333 18.4 17.8667 18.7333 21.2 20.6C24.6667 22.3333 26.4 25.2667 26.4 29.4C26.4 33 25.2 35.9333 22.8 38.2C20.5333 40.3333 17.5333 41.4 13.8 41.4C9.93333 41.4 6.73333 40.0667 4.2 37.4C1.8 34.6 0.6 30.9333 0.6 26.4C0.466667 20.9333 2.13333 15.6667 5.6 10.6C9.2 5.39999 13.4667 1.86665 18.4 -1.19209e-05L18.8 0.399995C15.3333 2.8 12.8 5.86666 11.2 9.6C9.73333 13.3333 9.2 16.6 9.6 19.4L10 19.6ZM44.4 19.6C48.6667 18.4 52.4667 18.7333 55.8 20.6C59.2667 22.3333 61 25.2667 61 29.4C61 33 59.8 35.9333 57.4 38.2C55 40.3333 52 41.4 48.4 41.4C44.4 41.4 41.2 40.0667 38.8 37.4C36.4 34.6 35.1333 30.9333 35 26.4C35 20.9333 36.7333 15.6667 40.2 10.6C43.8 5.39999 48.0667 1.86665 53 -1.19209e-05L53.4 0.399995C49.9333 2.8 47.4 5.86666 45.8 9.6C44.3333 13.3333 43.8 16.6 44.2 19.4L44.4 19.6Z" fill="#11151A"/>
</svg>
